<svg xmlns="http://www.w3.org/2000/svg" xmlns:xlink="http://www.w3.org/1999/xlink" width="500" zoomAndPan="magnify" viewBox="0 0 375 374.999991" height="500" preserveAspectRatio="xMidYMid meet" version="1.0"><defs><g/><clipPath id="ecddc6d257"><path d="M 45.375 109.03125 L 77.148438 109.03125 L 77.148438 136.511719 L 45.375 136.511719 Z M 45.375 109.03125 " clip-rule="nonzero"/></clipPath><clipPath id="04968e9295"><path d="M 75.792969 131.894531 L 81.484375 131.894531 L 81.484375 136.511719 L 75.792969 136.511719 Z M 75.792969 131.894531 " clip-rule="nonzero"/></clipPath><clipPath id="23fff57fb8"><path d="M 85.617188 109.03125 L 117.375 109.03125 L 117.375 136.511719 L 85.617188 136.511719 Z M 85.617188 109.03125 " clip-rule="nonzero"/></clipPath><clipPath id="6da040d212"><path d="M 81.28125 131.894531 L 86.972656 131.894531 L 86.972656 136.511719 L 81.28125 136.511719 Z M 81.28125 131.894531 " clip-rule="nonzero"/></clipPath><clipPath id="e5035f7ae1"><path d="M 88 81.785156 L 95 81.785156 L 95 88 L 88 88 Z M 88 81.785156 " clip-rule="nonzero"/></clipPath></defs><g fill="#000000" fill-opacity="1"><g transform="translate(110.494778, 114.714921)"><g><path d="M 7.921875 -8.90625 L 7.921875 -12.625 L 13.890625 -12.625 L 13.890625 -0.40625 C 13.148438 -0.21875 12.253906 -0.0625 11.203125 0.0625 C 10.148438 0.1875 9.171875 0.25 8.265625 0.25 C 6.265625 0.25 4.773438 -0.046875 3.796875 -0.640625 C 2.816406 -1.242188 2.144531 -2.316406 1.78125 -3.859375 C 1.414062 -5.410156 1.234375 -7.742188 1.234375 -10.859375 C 1.234375 -13.953125 1.425781 -16.269531 1.8125 -17.8125 C 2.207031 -19.363281 2.914062 -20.441406 3.9375 -21.046875 C 4.96875 -21.660156 6.515625 -21.96875 8.578125 -21.96875 C 9.421875 -21.96875 10.335938 -21.90625 11.328125 -21.78125 C 12.316406 -21.65625 13.160156 -21.507812 13.859375 -21.34375 L 13.859375 -17.765625 C 12.046875 -18.023438 10.726562 -18.15625 9.90625 -18.15625 C 8.476562 -18.15625 7.492188 -18.035156 6.953125 -17.796875 C 6.421875 -17.566406 6.054688 -16.972656 5.859375 -16.015625 C 5.660156 -15.054688 5.5625 -13.335938 5.5625 -10.859375 C 5.5625 -8.546875 5.625 -6.898438 5.75 -5.921875 C 5.875 -4.941406 6.117188 -4.28125 6.484375 -3.9375 C 6.847656 -3.601562 7.472656 -3.4375 8.359375 -3.4375 C 8.546875 -3.4375 9.050781 -3.46875 9.875 -3.53125 L 9.875 -8.90625 Z M 7.921875 -8.90625 "/></g></g></g><g fill="#000000" fill-opacity="1"><g transform="translate(125.864081, 114.714921)"><g><path d="M 10.453125 0 L 8.328125 -7.578125 L 6 -7.578125 L 6 0 L 1.640625 0 L 1.640625 -21.71875 L 8.96875 -21.71875 C 10.519531 -21.71875 11.691406 -21.453125 12.484375 -20.921875 C 13.273438 -20.398438 13.804688 -19.644531 14.078125 -18.65625 C 14.347656 -17.664062 14.484375 -16.335938 14.484375 -14.671875 C 14.484375 -13.097656 14.34375 -11.796875 14.0625 -10.765625 C 13.78125 -9.734375 13.207031 -8.953125 12.34375 -8.421875 L 14.953125 0 Z M 7.921875 -11.328125 C 8.617188 -11.328125 9.113281 -11.40625 9.40625 -11.5625 C 9.695312 -11.71875 9.890625 -12.007812 9.984375 -12.4375 C 10.078125 -12.875 10.125 -13.609375 10.125 -14.640625 C 10.125 -15.648438 10.078125 -16.363281 9.984375 -16.78125 C 9.890625 -17.207031 9.695312 -17.5 9.40625 -17.65625 C 9.113281 -17.8125 8.617188 -17.890625 7.921875 -17.890625 L 6 -17.890625 L 6 -11.328125 Z M 7.921875 -11.328125 "/></g></g></g><g fill="#000000" fill-opacity="1"><g transform="translate(141.454293, 114.714921)"><g><path d="M 11.140625 0 L 10.296875 -4.453125 L 5.421875 -4.453125 L 4.578125 0 L 0.25 0 L 4.734375 -21.71875 L 11.078125 -21.71875 L 15.5625 0 Z M 7.953125 -17.609375 L 7.765625 -17.609375 L 6.0625 -8.203125 L 9.625 -8.203125 Z M 7.953125 -17.609375 "/></g></g></g><g fill="#000000" fill-opacity="1"><g transform="translate(157.265421, 114.714921)"><g><path d="M 1.640625 -21.71875 L 7.515625 -21.71875 C 9.742188 -21.71875 11.335938 -21.40625 12.296875 -20.78125 C 13.253906 -20.164062 13.847656 -19.164062 14.078125 -17.78125 C 14.304688 -16.40625 14.421875 -14.097656 14.421875 -10.859375 C 14.421875 -7.617188 14.304688 -5.304688 14.078125 -3.921875 C 13.847656 -2.546875 13.253906 -1.546875 12.296875 -0.921875 C 11.335938 -0.304688 9.742188 0 7.515625 0 L 1.640625 0 Z M 7.453125 -3.8125 C 8.378906 -3.8125 9.003906 -3.921875 9.328125 -4.140625 C 9.648438 -4.367188 9.859375 -4.925781 9.953125 -5.8125 C 10.046875 -6.695312 10.09375 -8.378906 10.09375 -10.859375 C 10.09375 -13.316406 10.039062 -14.992188 9.9375 -15.890625 C 9.832031 -16.785156 9.625 -17.34375 9.3125 -17.5625 C 9 -17.78125 8.378906 -17.890625 7.453125 -17.890625 L 5.96875 -17.890625 L 5.96875 -3.8125 Z M 7.453125 -3.8125 "/></g></g></g><g fill="#000000" fill-opacity="1"><g transform="translate(172.918754, 114.714921)"><g><path d="M 1.640625 0 L 1.640625 -21.71875 L 6 -21.71875 L 6 -3.953125 L 11.484375 -3.953125 L 11.484375 0 Z M 1.640625 0 "/></g></g></g><g fill="#000000" fill-opacity="1"><g transform="translate(184.879669, 114.714921)"><g><path d="M 1.671875 0 L 1.671875 -21.71875 L 6 -21.71875 L 6 0 Z M 1.671875 0 "/></g></g></g><g fill="#000000" fill-opacity="1"><g transform="translate(192.548536, 114.714921)"><g><path d="M 10.953125 0 L 5.90625 -11.90625 L 5.78125 -11.90625 L 5.78125 0 L 1.640625 0 L 1.640625 -21.71875 L 5.84375 -21.71875 L 10.546875 -10.734375 L 10.703125 -10.734375 L 10.703125 -21.71875 L 14.859375 -21.71875 L 14.859375 0 Z M 10.953125 0 "/></g></g></g><g fill="#000000" fill-opacity="1"><g transform="translate(209.053966, 114.714921)"><g><path d="M 10.609375 0 L 7.203125 -9.0625 L 6 -9.0625 L 6 0 L 1.640625 0 L 1.640625 -21.71875 L 6 -21.71875 L 6 -12.96875 L 7.203125 -12.96875 L 10.703125 -21.71875 L 15.1875 -21.71875 L 10.671875 -11.328125 L 15.28125 0 Z M 10.609375 0 "/></g></g></g><g fill="#000000" fill-opacity="1"><g transform="translate(117.031599, 126.447119)"><g><path d="M 0.34375 0 L 0.34375 -0.421875 C 0.34375 -0.535156 0.394531 -0.601562 0.5 -0.625 L 1.078125 -0.734375 L 1.078125 -6.546875 C 0.753906 -6.609375 0.5625 -6.648438 0.5 -6.671875 C 0.394531 -6.691406 0.34375 -6.753906 0.34375 -6.859375 L 0.34375 -7.296875 L 5.75 -7.296875 L 5.75 -5.53125 L 5.265625 -5.53125 C 5.140625 -5.53125 5.066406 -5.585938 5.046875 -5.703125 C 5.046875 -5.710938 5.039062 -5.742188 5.03125 -5.796875 C 5.03125 -5.859375 5.019531 -5.953125 5 -6.078125 C 4.988281 -6.210938 4.976562 -6.347656 4.96875 -6.484375 L 2.078125 -6.484375 L 2.078125 -3.9375 L 4.84375 -3.9375 L 4.84375 -3.140625 L 2.078125 -3.140625 L 2.078125 -0.734375 C 2.097656 -0.722656 2.132812 -0.710938 2.1875 -0.703125 C 2.238281 -0.703125 2.304688 -0.691406 2.390625 -0.671875 C 2.484375 -0.648438 2.566406 -0.632812 2.640625 -0.625 C 2.753906 -0.601562 2.8125 -0.535156 2.8125 -0.421875 L 2.8125 0 Z M 0.34375 0 "/></g></g></g><g fill="#000000" fill-opacity="1"><g transform="translate(124.362746, 126.447119)"><g><path d="M 0.484375 -2.125 C 0.304688 -2.59375 0.21875 -3.097656 0.21875 -3.640625 C 0.21875 -4.179688 0.304688 -4.679688 0.484375 -5.140625 C 0.660156 -5.597656 0.90625 -5.992188 1.21875 -6.328125 C 1.539062 -6.660156 1.921875 -6.914062 2.359375 -7.09375 C 2.816406 -7.28125 3.304688 -7.375 3.828125 -7.375 C 4.359375 -7.375 4.847656 -7.28125 5.296875 -7.09375 C 5.753906 -6.90625 6.132812 -6.65625 6.4375 -6.34375 C 6.757812 -6.007812 7.003906 -5.613281 7.171875 -5.15625 C 7.335938 -4.707031 7.421875 -4.203125 7.421875 -3.640625 L 7.421875 -3.625 C 7.421875 -3.070312 7.332031 -2.570312 7.15625 -2.125 C 6.988281 -1.664062 6.742188 -1.269531 6.421875 -0.9375 C 6.109375 -0.613281 5.734375 -0.363281 5.296875 -0.1875 C 4.835938 0 4.347656 0.09375 3.828125 0.09375 C 3.304688 0.09375 2.816406 0 2.359375 -0.1875 C 1.910156 -0.375 1.53125 -0.625 1.21875 -0.9375 C 0.90625 -1.269531 0.660156 -1.664062 0.484375 -2.125 Z M 1.21875 -3.625 C 1.21875 -3.175781 1.28125 -2.773438 1.40625 -2.421875 C 1.53125 -2.078125 1.707031 -1.78125 1.9375 -1.53125 C 2.164062 -1.28125 2.4375 -1.085938 2.75 -0.953125 C 3.082031 -0.816406 3.4375 -0.75 3.8125 -0.75 C 4.195312 -0.75 4.554688 -0.816406 4.890625 -0.953125 C 5.203125 -1.085938 5.472656 -1.28125 5.703125 -1.53125 C 5.921875 -1.769531 6.09375 -2.066406 6.21875 -2.421875 C 6.34375 -2.773438 6.40625 -3.175781 6.40625 -3.625 L 6.390625 -3.625 C 6.390625 -4.082031 6.332031 -4.488281 6.21875 -4.84375 C 6.082031 -5.21875 5.910156 -5.519531 5.703125 -5.75 C 5.484375 -5.988281 5.210938 -6.175781 4.890625 -6.3125 C 4.578125 -6.4375 4.21875 -6.5 3.8125 -6.5 C 3.414062 -6.5 3.0625 -6.4375 2.75 -6.3125 C 2.425781 -6.175781 2.15625 -5.988281 1.9375 -5.75 C 1.707031 -5.5 1.53125 -5.195312 1.40625 -4.84375 C 1.28125 -4.488281 1.21875 -4.082031 1.21875 -3.625 Z M 1.21875 -3.625 "/></g></g></g><g fill="#000000" fill-opacity="1"><g transform="translate(133.423725, 126.447119)"><g><path d="M 0.34375 -0.015625 L 0.34375 -0.453125 C 0.34375 -0.546875 0.390625 -0.601562 0.484375 -0.625 L 1.078125 -0.75 L 1.078125 -6.5625 C 0.742188 -6.625 0.546875 -6.664062 0.484375 -6.6875 C 0.390625 -6.707031 0.34375 -6.765625 0.34375 -6.859375 L 0.34375 -7.3125 L 3.03125 -7.3125 C 3.476562 -7.3125 3.878906 -7.265625 4.234375 -7.171875 C 4.566406 -7.078125 4.847656 -6.941406 5.078125 -6.765625 C 5.296875 -6.578125 5.457031 -6.363281 5.5625 -6.125 C 5.664062 -5.875 5.71875 -5.59375 5.71875 -5.28125 C 5.71875 -5.039062 5.675781 -4.800781 5.59375 -4.5625 C 5.507812 -4.34375 5.390625 -4.140625 5.234375 -3.953125 C 5.078125 -3.765625 4.890625 -3.609375 4.671875 -3.484375 C 4.410156 -3.347656 4.160156 -3.253906 3.921875 -3.203125 C 4.046875 -3.128906 4.15625 -3.023438 4.25 -2.890625 L 5.828125 -0.734375 C 6.171875 -0.671875 6.359375 -0.632812 6.390625 -0.625 C 6.492188 -0.601562 6.546875 -0.546875 6.546875 -0.453125 L 6.546875 0 L 5.484375 0 C 5.304688 0 5.175781 -0.0703125 5.09375 -0.21875 L 3.203125 -2.828125 C 3.148438 -2.890625 3.085938 -2.945312 3.015625 -3 C 2.953125 -3.03125 2.851562 -3.046875 2.71875 -3.046875 L 2.0625 -3.046875 L 2.0625 -0.75 C 2.382812 -0.6875 2.570312 -0.644531 2.625 -0.625 C 2.675781 -0.613281 2.71875 -0.59375 2.75 -0.5625 C 2.78125 -0.53125 2.796875 -0.492188 2.796875 -0.453125 L 2.796875 -0.015625 Z M 2.046875 -3.765625 L 2.984375 -3.765625 L 2.96875 -3.765625 C 3.269531 -3.765625 3.523438 -3.800781 3.734375 -3.875 C 3.941406 -3.9375 4.125 -4.035156 4.28125 -4.171875 C 4.4375 -4.304688 4.550781 -4.457031 4.625 -4.625 C 4.695312 -4.789062 4.734375 -4.988281 4.734375 -5.21875 C 4.734375 -5.644531 4.59375 -5.96875 4.3125 -6.1875 C 4.03125 -6.40625 3.601562 -6.515625 3.03125 -6.515625 L 2.046875 -6.515625 Z M 2.046875 -3.765625 "/></g></g></g><g fill="#000000" fill-opacity="1"><g transform="translate(141.619789, 126.447119)"><g/></g></g><g fill="#000000" fill-opacity="1"><g transform="translate(145.193026, 126.447119)"><g><path d="M 0.25 0 L 0.25 -0.40625 C 0.25 -0.488281 0.296875 -0.546875 0.390625 -0.578125 L 0.796875 -0.6875 L 3.4375 -7.296875 L 4.4375 -7.296875 L 7.078125 -0.6875 L 7.484375 -0.578125 C 7.578125 -0.546875 7.625 -0.488281 7.625 -0.40625 L 7.625 0 L 5.515625 0 L 5.515625 -0.40625 C 5.515625 -0.5 5.566406 -0.554688 5.671875 -0.578125 L 6.078125 -0.6875 L 5.515625 -2.15625 L 2.359375 -2.15625 L 1.796875 -0.6875 L 2.203125 -0.578125 C 2.296875 -0.554688 2.34375 -0.5 2.34375 -0.40625 L 2.34375 0 Z M 2.640625 -2.875 L 5.234375 -2.875 L 4.15625 -5.6875 C 4.070312 -5.875 4 -6.101562 3.9375 -6.375 C 3.851562 -6.0625 3.785156 -5.828125 3.734375 -5.671875 Z M 2.640625 -2.875 "/></g></g></g><g fill="#000000" fill-opacity="1"><g transform="translate(154.437924, 126.447119)"><g><path d="M 0.34375 0 L 0.34375 -0.4375 C 0.34375 -0.476562 0.359375 -0.515625 0.390625 -0.546875 C 0.421875 -0.585938 0.457031 -0.613281 0.5 -0.625 L 1.078125 -0.75 L 1.078125 -6.5625 C 0.753906 -6.625 0.5625 -6.660156 0.5 -6.671875 C 0.457031 -6.679688 0.421875 -6.703125 0.390625 -6.734375 C 0.359375 -6.773438 0.34375 -6.816406 0.34375 -6.859375 L 0.34375 -7.296875 L 2.796875 -7.296875 L 2.796875 -6.859375 C 2.796875 -6.816406 2.78125 -6.773438 2.75 -6.734375 C 2.71875 -6.703125 2.679688 -6.679688 2.640625 -6.671875 C 2.597656 -6.660156 2.492188 -6.640625 2.328125 -6.609375 C 2.160156 -6.578125 2.070312 -6.5625 2.0625 -6.5625 L 2.0625 -0.828125 L 4.6875 -0.828125 C 4.707031 -1.148438 4.726562 -1.347656 4.75 -1.421875 C 4.757812 -1.472656 4.785156 -1.515625 4.828125 -1.546875 C 4.867188 -1.578125 4.910156 -1.59375 4.953125 -1.59375 L 5.46875 -1.59375 L 5.46875 0 Z M 0.34375 0 "/></g></g></g><g fill="#000000" fill-opacity="1"><g transform="translate(161.624919, 126.447119)"><g><path d="M 0.171875 -6.859375 L 0.171875 -7.296875 L 2.734375 -7.296875 L 2.734375 -6.859375 C 2.734375 -6.753906 2.675781 -6.691406 2.5625 -6.671875 C 2.425781 -6.640625 2.203125 -6.601562 1.890625 -6.5625 L 1.890625 -2.875 C 1.890625 -2.238281 2.0625 -1.734375 2.40625 -1.359375 C 2.75 -0.972656 3.21875 -0.78125 3.8125 -0.78125 C 4.414062 -0.78125 4.890625 -0.972656 5.234375 -1.359375 C 5.578125 -1.742188 5.75 -2.242188 5.75 -2.859375 L 5.75 -6.5625 C 5.414062 -6.613281 5.191406 -6.648438 5.078125 -6.671875 C 4.960938 -6.691406 4.90625 -6.753906 4.90625 -6.859375 L 4.90625 -7.296875 L 7.453125 -7.296875 L 7.453125 -6.859375 C 7.453125 -6.753906 7.398438 -6.6875 7.296875 -6.65625 L 6.71875 -6.546875 L 6.71875 -2.84375 C 6.71875 -2.019531 6.457031 -1.320312 5.9375 -0.75 C 5.414062 -0.1875 4.707031 0.09375 3.8125 0.09375 C 2.925781 0.09375 2.21875 -0.1875 1.6875 -0.75 C 1.164062 -1.3125 0.90625 -2.007812 0.90625 -2.84375 L 0.90625 -6.546875 C 0.582031 -6.609375 0.390625 -6.648438 0.328125 -6.671875 C 0.222656 -6.691406 0.171875 -6.753906 0.171875 -6.859375 Z M 0.171875 -6.859375 "/></g></g></g><g fill="#000000" fill-opacity="1"><g transform="translate(170.631222, 126.447119)"><g><path d="M 0.34375 0 L 0.34375 -0.453125 C 0.34375 -0.554688 0.394531 -0.613281 0.5 -0.625 L 1.078125 -0.75 L 1.078125 -6.5625 C 0.765625 -6.613281 0.570312 -6.65625 0.5 -6.6875 C 0.394531 -6.695312 0.34375 -6.753906 0.34375 -6.859375 L 0.34375 -7.3125 L 1.8125 -7.3125 C 1.90625 -7.3125 1.972656 -7.300781 2.015625 -7.28125 C 2.078125 -7.25 2.125 -7.207031 2.15625 -7.15625 L 4.671875 -2.640625 C 4.734375 -2.523438 4.8125 -2.351562 4.90625 -2.125 C 4.945312 -2.257812 5.023438 -2.4375 5.140625 -2.65625 L 7.59375 -7.15625 C 7.625 -7.207031 7.671875 -7.25 7.734375 -7.28125 C 7.773438 -7.300781 7.84375 -7.3125 7.9375 -7.3125 L 9.40625 -7.3125 L 9.40625 -6.859375 C 9.40625 -6.753906 9.351562 -6.695312 9.25 -6.6875 L 8.671875 -6.5625 L 8.671875 -0.75 C 8.972656 -0.695312 9.164062 -0.65625 9.25 -0.625 C 9.351562 -0.613281 9.40625 -0.554688 9.40625 -0.453125 L 9.40625 0 L 6.96875 0 L 6.96875 -0.453125 C 6.96875 -0.554688 7.019531 -0.613281 7.125 -0.625 C 7.34375 -0.675781 7.570312 -0.71875 7.8125 -0.75 L 7.8125 -5.375 C 7.8125 -5.582031 7.816406 -5.738281 7.828125 -5.84375 L 5.3125 -1.28125 C 5.238281 -1.125 5.125 -1.046875 4.96875 -1.046875 L 4.828125 -1.046875 C 4.660156 -1.046875 4.539062 -1.125 4.46875 -1.28125 L 1.921875 -5.859375 L 1.921875 -5.875 C 1.941406 -5.6875 1.953125 -5.519531 1.953125 -5.375 L 1.953125 -0.75 C 2.273438 -0.695312 2.503906 -0.65625 2.640625 -0.625 C 2.734375 -0.613281 2.78125 -0.554688 2.78125 -0.453125 L 2.78125 0 Z M 0.34375 0 "/></g></g></g><g fill="#000000" fill-opacity="1"><g transform="translate(181.725248, 126.447119)"><g><path d="M 0.34375 0 L 0.34375 -0.4375 C 0.34375 -0.550781 0.390625 -0.613281 0.484375 -0.625 L 1.078125 -0.75 L 1.078125 -6.5625 C 0.753906 -6.625 0.550781 -6.660156 0.46875 -6.671875 C 0.382812 -6.691406 0.34375 -6.753906 0.34375 -6.859375 L 0.34375 -7.296875 L 2.796875 -7.296875 L 2.796875 -6.859375 C 2.796875 -6.753906 2.742188 -6.691406 2.640625 -6.671875 L 2.0625 -6.5625 L 2.0625 -0.75 C 2.363281 -0.6875 2.570312 -0.644531 2.6875 -0.625 C 2.757812 -0.601562 2.796875 -0.539062 2.796875 -0.4375 L 2.796875 0 Z M 0.34375 0 "/></g></g></g><g fill="#000000" fill-opacity="1"><g transform="translate(186.213112, 126.447119)"><g><path d="M 0.34375 0.015625 L 0.34375 -0.421875 C 0.34375 -0.523438 0.394531 -0.585938 0.5 -0.609375 L 1.078125 -0.734375 L 1.078125 -6.546875 C 0.753906 -6.597656 0.5625 -6.632812 0.5 -6.65625 C 0.394531 -6.675781 0.34375 -6.742188 0.34375 -6.859375 L 0.34375 -7.296875 L 1.59375 -7.296875 C 1.675781 -7.296875 1.738281 -7.285156 1.78125 -7.265625 C 1.8125 -7.242188 1.863281 -7.203125 1.9375 -7.140625 L 6.15625 -1.625 L 6.15625 -1.609375 C 6.144531 -1.703125 6.140625 -1.875 6.140625 -2.125 L 6.140625 -6.546875 C 6.015625 -6.554688 5.898438 -6.570312 5.796875 -6.59375 C 5.703125 -6.613281 5.625 -6.628906 5.5625 -6.640625 C 5.5 -6.648438 5.46875 -6.65625 5.46875 -6.65625 C 5.351562 -6.6875 5.296875 -6.75 5.296875 -6.84375 L 5.296875 -7.296875 L 7.734375 -7.296875 L 7.734375 -6.84375 C 7.734375 -6.738281 7.679688 -6.675781 7.578125 -6.65625 L 7 -6.546875 L 7 0.015625 L 6.5 0.015625 C 6.363281 0.015625 6.25 -0.046875 6.15625 -0.171875 L 1.921875 -5.671875 C 1.929688 -5.546875 1.9375 -5.382812 1.9375 -5.1875 L 1.9375 -0.734375 C 2.15625 -0.703125 2.382812 -0.660156 2.625 -0.609375 C 2.71875 -0.585938 2.765625 -0.523438 2.765625 -0.421875 L 2.765625 0.015625 Z M 0.34375 0.015625 "/></g></g></g><g fill="#000000" fill-opacity="1"><g transform="translate(195.497779, 126.447119)"><g><path d="M 0.34375 0 L 0.34375 -0.4375 C 0.34375 -0.550781 0.390625 -0.613281 0.484375 -0.625 L 1.078125 -0.75 L 1.078125 -6.5625 C 0.753906 -6.625 0.550781 -6.660156 0.46875 -6.671875 C 0.382812 -6.691406 0.34375 -6.753906 0.34375 -6.859375 L 0.34375 -7.296875 L 2.796875 -7.296875 L 2.796875 -6.859375 C 2.796875 -6.753906 2.742188 -6.691406 2.640625 -6.671875 L 2.0625 -6.5625 L 2.0625 -0.75 C 2.363281 -0.6875 2.570312 -0.644531 2.6875 -0.625 C 2.757812 -0.601562 2.796875 -0.539062 2.796875 -0.4375 L 2.796875 0 Z M 0.34375 0 "/></g></g></g><g fill="#000000" fill-opacity="1"><g transform="translate(199.985643, 126.447119)"><g><path d="M 0.359375 -0.296875 L 0.359375 -2.140625 L 0.859375 -2.140625 C 0.972656 -2.140625 1.039062 -2.082031 1.0625 -1.96875 C 1.070312 -1.90625 1.085938 -1.738281 1.109375 -1.46875 L 1.140625 -1.015625 C 1.671875 -0.828125 2.082031 -0.734375 2.375 -0.734375 C 2.664062 -0.734375 2.921875 -0.765625 3.140625 -0.828125 C 3.328125 -0.898438 3.484375 -0.992188 3.609375 -1.109375 C 3.867188 -1.347656 4 -1.671875 4 -2.078125 C 4 -2.472656 3.8125 -2.769531 3.4375 -2.96875 C 3.257812 -3.082031 3.078125 -3.164062 2.890625 -3.21875 C 2.179688 -3.445312 1.753906 -3.585938 1.609375 -3.640625 C 1.421875 -3.722656 1.234375 -3.847656 1.046875 -4.015625 C 0.679688 -4.335938 0.5 -4.789062 0.5 -5.375 C 0.5 -5.914062 0.695312 -6.378906 1.09375 -6.765625 C 1.507812 -7.171875 2.050781 -7.375 2.71875 -7.375 C 3.414062 -7.375 4.097656 -7.238281 4.765625 -6.96875 L 4.765625 -5.28125 L 4.28125 -5.28125 C 4.15625 -5.28125 4.082031 -5.34375 4.0625 -5.46875 C 4.0625 -5.46875 4.054688 -5.5 4.046875 -5.5625 C 4.046875 -5.625 4.039062 -5.726562 4.03125 -5.875 C 4.019531 -6.03125 4.007812 -6.195312 4 -6.375 C 3.53125 -6.5 3.128906 -6.5625 2.796875 -6.5625 C 2.347656 -6.5625 2.003906 -6.453125 1.765625 -6.234375 C 1.535156 -6.023438 1.421875 -5.753906 1.421875 -5.421875 C 1.421875 -5.054688 1.601562 -4.773438 1.96875 -4.578125 C 2.144531 -4.472656 2.335938 -4.382812 2.546875 -4.3125 C 3.140625 -4.125 3.566406 -3.972656 3.828125 -3.859375 L 3.8125 -3.859375 C 4.539062 -3.535156 4.90625 -2.988281 4.90625 -2.21875 C 4.90625 -1.550781 4.695312 -1.003906 4.28125 -0.578125 C 3.832031 -0.140625 3.226562 0.078125 2.46875 0.078125 C 2.144531 0.078125 1.8125 0.046875 1.46875 -0.015625 C 1.21875 -0.0546875 0.945312 -0.117188 0.65625 -0.203125 Z M 0.359375 -0.296875 "/></g></g></g><g clip-path="url(#ecddc6d257)"><path fill="#19467e" d="M 76.921875 136.246094 C 76.914062 136.242188 76.90625 136.238281 76.902344 136.238281 C 76.902344 136.242188 76.910156 136.246094 76.921875 136.25 C 76.894531 136.335938 76.863281 136.421875 76.839844 136.511719 C 76.496094 136.410156 76.152344 136.3125 75.804688 136.214844 C 66.015625 133.5 55.632812 132.960938 45.375 134.699219 C 47.242188 128.09375 49.109375 121.488281 50.972656 114.882812 C 51.769531 112.066406 53.980469 109.886719 56.789062 109.136719 C 56.917969 109.101562 57.046875 109.070312 57.175781 109.035156 C 54.773438 116.398438 52.367188 123.765625 49.964844 131.128906 C 58.019531 130.09375 69.75 131.953125 76.175781 135.238281 C 76.507812 135.40625 76.824219 135.578125 77.125 135.753906 C 77.046875 135.914062 76.980469 136.078125 76.921875 136.246094 " fill-opacity="1" fill-rule="nonzero"/></g><path fill="#0979bd" d="M 65.121094 104.601562 C 65.074219 104.613281 65.023438 104.621094 64.976562 104.632812 C 62.136719 105.261719 59.839844 107.359375 58.933594 110.144531 C 56.875 116.464844 54.933594 122.429688 52.8125 128.949219 C 67.238281 128.273438 75.21875 133.421875 75.21875 133.421875 C 67.953125 126.976562 57.039062 127 57.039062 127 C 57.039062 127 62.429688 111.863281 65.121094 104.601562 " fill-opacity="1" fill-rule="nonzero"/><path fill="#ff0000" d="M 72.78125 101.121094 C 72.761719 101.125 72.746094 101.128906 72.730469 101.132812 C 69.886719 101.75 67.59375 103.859375 66.6875 106.640625 C 64.683594 112.804688 62.789062 118.621094 60.71875 124.980469 C 71.5625 126.402344 76.132812 133 76.132812 133 C 73.890625 126.355469 64.664062 123.707031 64.664062 123.707031 C 64.664062 123.707031 70.144531 108.238281 72.78125 101.121094 " fill-opacity="1" fill-rule="nonzero"/><g clip-path="url(#04968e9295)"><path fill="#19467e" d="M 81.4375 131.929688 C 79.125 131.929688 77.128906 133.28125 76.175781 135.238281 C 76.085938 135.425781 76.007812 135.617188 75.933594 135.8125 C 75.886719 135.945312 75.84375 136.078125 75.804688 136.214844 C 76.152344 136.3125 76.496094 136.410156 76.839844 136.511719 C 76.863281 136.421875 76.894531 136.335938 76.921875 136.25 L 76.921875 136.246094 C 76.980469 136.078125 77.046875 135.914062 77.125 135.753906 C 77.890625 134.132812 79.535156 133.011719 81.4375 133.011719 L 81.4375 131.929688 " fill-opacity="1" fill-rule="nonzero"/></g><path fill="#ff0000" d="M 87.964844 102.035156 C 91.585938 98.042969 93.089844 93.503906 92.253906 87.226562 C 94.507812 93.117188 94.597656 99.628906 90.382812 104.851562 C 83.21875 113.726562 70.164062 115.003906 69.613281 125.347656 C 67.792969 113.015625 80.328125 110.453125 87.964844 102.035156 " fill-opacity="1" fill-rule="nonzero"/><path fill="#2e2c2b" d="M 77.136719 98.316406 C 77.136719 100.789062 78.839844 102.792969 80.9375 102.792969 C 83.03125 102.792969 84.734375 100.789062 84.734375 98.316406 C 84.734375 95.84375 83.03125 93.839844 80.9375 93.839844 C 78.839844 93.839844 77.136719 95.84375 77.136719 98.316406 " fill-opacity="1" fill-rule="nonzero"/><g clip-path="url(#23fff57fb8)"><path fill="#19467e" d="M 85.824219 136.246094 C 85.835938 136.242188 85.84375 136.238281 85.847656 136.238281 C 85.84375 136.242188 85.835938 136.246094 85.828125 136.25 C 85.855469 136.335938 85.882812 136.421875 85.910156 136.511719 C 86.253906 136.410156 86.597656 136.3125 86.941406 136.214844 C 96.730469 133.5 107.117188 132.960938 117.375 134.699219 C 115.507812 128.09375 113.640625 121.488281 111.773438 114.882812 C 110.980469 112.066406 108.769531 109.886719 105.960938 109.136719 C 105.832031 109.101562 105.703125 109.070312 105.574219 109.035156 C 107.976562 116.398438 110.378906 123.765625 112.78125 131.128906 C 104.730469 130.09375 93 131.953125 86.570312 135.238281 C 86.242188 135.40625 85.925781 135.578125 85.625 135.753906 C 85.703125 135.914062 85.769531 136.078125 85.824219 136.246094 " fill-opacity="1" fill-rule="nonzero"/></g><path fill="#0979bd" d="M 97.628906 104.601562 C 97.675781 104.613281 97.726562 104.621094 97.773438 104.632812 C 100.613281 105.261719 102.910156 107.359375 103.816406 110.144531 C 105.875 116.464844 107.816406 122.429688 109.9375 128.949219 C 95.511719 128.273438 87.53125 133.421875 87.53125 133.421875 C 94.796875 126.976562 105.710938 127 105.710938 127 C 105.710938 127 100.316406 111.863281 97.628906 104.601562 " fill-opacity="1" fill-rule="nonzero"/><path fill="#ff0000" d="M 86.566406 133 C 86.566406 133 91.132812 126.398438 101.980469 124.980469 C 99.9375 118.703125 98.0625 112.957031 96.089844 106.882812 C 95.296875 108.085938 94.3125 109.167969 93.175781 110.097656 C 95.585938 116.804688 98.03125 123.707031 98.03125 123.707031 C 98.03125 123.707031 88.808594 126.355469 86.566406 133 " fill-opacity="1" fill-rule="nonzero"/><g clip-path="url(#6da040d212)"><path fill="#19467e" d="M 81.3125 133.011719 C 83.214844 133.011719 84.859375 134.132812 85.625 135.753906 C 85.703125 135.914062 85.769531 136.078125 85.824219 136.246094 L 85.828125 136.25 C 85.855469 136.335938 85.882812 136.421875 85.910156 136.511719 C 86.253906 136.410156 86.597656 136.3125 86.941406 136.214844 C 86.902344 136.078125 86.859375 135.945312 86.8125 135.8125 C 86.742188 135.617188 86.660156 135.425781 86.570312 135.238281 C 85.621094 133.28125 83.621094 131.929688 81.3125 131.929688 L 81.3125 133.011719 " fill-opacity="1" fill-rule="nonzero"/></g><path fill="#2e2c2b" d="M 90.261719 111.492188 C 93.667969 109.539062 96.269531 106.488281 97.234375 102.71875 C 97.5 107.695312 95.042969 112.070312 91.09375 114.769531 C 84.417969 119.328125 74.710938 119.339844 71.003906 125.800781 C 72.527344 117.417969 82.941406 115.691406 90.261719 111.492188 " fill-opacity="1" fill-rule="nonzero"/><g clip-path="url(#e5035f7ae1)"><path fill="#a6a8ab" d="M 88.742188 82.824219 C 90.925781 84.75 91.015625 85.195312 89.75 87.828125 C 91.667969 85.628906 92.105469 85.539062 94.722656 86.8125 C 92.539062 84.882812 92.449219 84.4375 93.710938 81.804688 C 91.796875 84.003906 91.355469 84.09375 88.742188 82.824219 " fill-opacity="1" fill-rule="nonzero"/></g><path fill="#a6a8ab" d="M 97.796875 92.492188 C 98.546875 92.59375 98.632812 92.675781 98.734375 93.4375 C 98.835938 92.675781 98.917969 92.59375 99.671875 92.492188 C 98.917969 92.386719 98.835938 92.304688 98.734375 91.546875 C 98.632812 92.304688 98.546875 92.386719 97.796875 92.492188 " fill-opacity="1" fill-rule="nonzero"/><path fill="#a6a8ab" d="M 84.660156 91.917969 C 86.1875 92.128906 86.355469 92.296875 86.5625 93.839844 C 86.773438 92.296875 86.941406 92.128906 88.472656 91.917969 C 86.941406 91.710938 86.773438 91.539062 86.566406 90 C 86.359375 91.539062 86.1875 91.707031 84.660156 91.917969 " fill-opacity="1" fill-rule="nonzero"/></svg>